# xmcd
#
# Track frame offsets: 
#        150
#        13124
#        33614
#        51065
#        63369
#        84605
#        104873
#        118983
#        136288
#        149111
#        164051
#
# Disc length: 2415 seconds
#
# Revision: 0
# Processed by: cddbd v1.5.2PL0 Copyright (c) Steve Scherf et al.
# Submitted via: ExactAudioCopy v0.99pb4
#
DISCID=ae096d0b
DTITLE=Merry Clayton - Keep Your Eye On The Sparrow
DYEAR=1975
DGENRE=Soul
TTITLE0=Keep Your Eye On The Sparrow
TTITLE1=Gets Hard Sometimes
TTITLE2=Sink Or Swim
TTITLE3=How'd I Know
TTITLE4=Gold Fever
TTITLE5=One More Ride
TTITLE6=Room 205
TTITLE7=Loving Grows Up Slow
TTITLE8=Rainy Day Women #12 and 35
TTITLE9=If I Lose
TTITLE10=Do What You Know
EXTD=
EXTT0=
EXTT1=
EXTT2=
EXTT3=
EXTT4=
EXTT5=
EXTT6=
EXTT7=
EXTT8=
EXTT9=
EXTT10=
PLAYORDER=
